<?xml version="1.0" encoding="utf-8"?>
<!-- Generator: Adobe Illustrator 16.0.0, SVG Export Plug-In . SVG Version: 6.00 Build 0)  -->
<!DOCTYPE svg PUBLIC "-//W3C//DTD SVG 1.0//EN" "http://www.w3.org/TR/2001/REC-SVG-20010904/DTD/svg10.dtd">
<svg version="1.0" id="Layer_1" xmlns="http://www.w3.org/2000/svg" xmlns:xlink="http://www.w3.org/1999/xlink" x="0px" y="0px"
	 viewBox="0 0 64 64" enable-background="new 0 0 64 64" xml:space="preserve">
<g>
	<path fill="#FFFFFF" d="M46.49,35.695c0,0-14.891-2.241-22.515,8.461l-3.445-2.588c0,0,9.705-13.954,26.708-8.879L46.49,35.695z"/>
	<path fill="#FFFFFF" d="M18.76,26.62c0,0,16.566,1.854,21.02-6.799l3.447,2.585c0,0-6.959,11.352-25.214,7.222L18.76,26.62z"/>
	<path fill="#FFFFFF" d="M26.694,18.131c0,0,9.477,15.693,10.988,27.321l3.301-2.407c0,0-0.967-11.811-10.705-26.139L26.694,18.131z
		"/>
	<path fill="#FFFFFF" d="M32.004,49.008C22.627,49.008,15,41.381,15,32.004C15,22.628,22.627,15,32.004,15
		s17.005,7.628,17.005,17.004C49.009,41.381,41.381,49.008,32.004,49.008z M32.004,18.985c-7.178,0-13.019,5.841-13.019,13.019
		c0,7.18,5.839,13.02,13.019,13.02s13.02-5.84,13.02-13.02C45.021,24.826,39.184,18.985,32.004,18.985z"/>
</g>
</svg>
