<?xml version="1.0" encoding="utf-8"?>
<!-- Generator: Adobe Illustrator 16.0.0, SVG Export Plug-In . SVG Version: 6.00 Build 0)  -->
<!DOCTYPE svg PUBLIC "-//W3C//DTD SVG 1.1//EN" "http://www.w3.org/Graphics/SVG/1.1/DTD/svg11.dtd">
<svg version="1.1" id="Layer_1" xmlns="http://www.w3.org/2000/svg" xmlns:xlink="http://www.w3.org/1999/xlink" x="0px" y="0px"
	  viewBox="0 0 64 64" enable-background="new 0 0 64 64" xml:space="preserve">
<path fill-rule="evenodd" clip-rule="evenodd" fill="#FFFFFF" d="M19.1,42.637c-4.95-10.379-1.613-18.102,10.471-23.02L19.1,42.637z
	"/>
<path opacity="0.5" fill-rule="evenodd" clip-rule="evenodd" fill="#FFFFFF" d="M21.509,45.379
	c4.821-10.271,11.626-19.412,19.532-27.923c2.084-2.785,5.947-3.456,6.064-0.915c-0.008,0.996-0.023,1.975-0.047,2.944
	c-9.57,7.833-17.265,17.21-23.83,27.446C22.574,46.48,21.993,45.964,21.509,45.379z"/>
<path fill-rule="evenodd" clip-rule="evenodd" fill="#FFFFFF" d="M23.229,46.932c6.565-10.236,14.26-19.614,23.83-27.446
	c-0.299,12.081-1.977,22.066-7.266,26.558C34.998,49.882,27.514,49.876,23.229,46.932z"/>
</svg>
