<?xml version="1.0" encoding="utf-8"?>
<!-- Generator: Adobe Illustrator 16.0.0, SVG Export Plug-In . SVG Version: 6.00 Build 0)  -->
<svg version="1.2" baseProfile="tiny" id="Layer_1" xmlns="http://www.w3.org/2000/svg" xmlns:xlink="http://www.w3.org/1999/xlink"
	 x="0px" y="0px" viewBox="0 0 64 64" xml:space="preserve">
<g>
	<path fill-rule="evenodd" fill="#FFFFFF" d="M45.436,38.146c-0.698-0.492-1.661-0.324-2.153,0.373
		c-0.66,0.937-1.361,1.647-2.145,2.175c-0.944,0.636-2.438,1.618-2.453,1.628c-0.436,0.285-0.697,0.771-0.697,1.29l0.002,1.452
		l-3.802-1.622c-0.218-0.094-0.455-0.135-0.692-0.121c-0.304,0.016-0.611,0.025-0.915,0.025c-4.498,0-8.598-1.849-10.698-4.823
		c-0.041-0.058-0.088-0.105-0.135-0.155c-0.849-1.244-1.29-2.582-1.29-3.983c0-4.917,5.41-8.919,12.057-8.919
		c2.424,0,4.764,0.534,6.764,1.547c0.021,0.011,0.043,0.021,0.064,0.03c1.984,1.018,3.166,2.598,3.166,4.237
		c0,1.327-0.757,2.607-2.133,3.606c-1.523,1.106-3.577,1.716-5.78,1.716c-0.557,0-1.114-0.039-1.655-0.119
		c-0.005,0-0.01-0.002-0.016-0.002c-1.549-0.236-3.027-0.746-4.279-1.478c-2.458-1.451-3.869-3.593-3.869-5.885
		c0-0.335,0.033-0.667,0.092-0.996c-1.261,0.823-2.274,1.845-2.941,2.998c0.631,2.618,2.479,4.989,5.208,6.583
		c0.025,0.015,0.054,0.02,0.08,0.033c1.564,0.893,3.381,1.518,5.27,1.802c0.01,0.002,0.021,0.004,0.031,0.004
		c0.681,0.1,1.382,0.15,2.08,0.15c2.85,0,5.548-0.819,7.597-2.307c2.197-1.597,3.408-3.766,3.408-6.107
		c0-2.849-1.844-5.477-4.93-7.029c-0.022-0.012-0.045-0.022-0.068-0.032c-2.416-1.207-5.21-1.844-8.088-1.844
		c-3.971,0-7.723,1.203-10.56,3.386c-2.958,2.275-4.587,5.338-4.587,8.624c0,2.063,0.666,4.098,1.925,5.88
		c0.08,0.113,0.173,0.21,0.274,0.295c2.716,3.628,7.657,5.877,13.013,5.877c0.238,0,0.479-0.004,0.719-0.014l5.624,2.403
		c0.193,0.082,0.4,0.123,0.606,0.123c0.298,0,0.595-0.086,0.852-0.256c0.432-0.285,0.693-0.77,0.693-1.288l0.002-2.96
		c0.525-0.345,1.245-0.821,1.788-1.188c1.086-0.729,2.075-1.726,2.943-2.955C46.3,39.603,46.133,38.641,45.436,38.146z
		 M35.058,21.566c2.099,0,4.118,0.468,5.843,1.352c0.023,0.012,0.047,0.023,0.071,0.034c1.182,0.623,2.01,1.483,2.369,2.42
		c1.259,1.119,2.139,2.468,2.554,3.933c0.485-0.906,0.738-1.883,0.738-2.887c0-2.527-1.615-4.864-4.319-6.252
		c-0.028-0.014-0.057-0.028-0.086-0.04c-2.14-1.08-4.617-1.649-7.17-1.649c-3.498,0-6.802,1.06-9.304,2.985
		c-1.112,0.855-2.01,1.836-2.678,2.905c2.657-1.611,5.884-2.5,9.274-2.534C33.221,21.657,34.128,21.566,35.058,21.566z M38.395,18.2
		c1.364,0.135,2.663,0.504,3.808,1.09c0.408,0.209,0.888,0.225,1.31,0.044c0.423-0.18,0.742-0.538,0.874-0.978
		c0.225-0.748-0.145-1.532-0.835-1.848c-1.889-0.954-4.076-1.458-6.328-1.458c-3.085,0-6,0.937-8.21,2.637
		c-0.907,0.698-1.655,1.491-2.231,2.354c2.375-1.406,5.248-2.168,8.255-2.168C36.177,17.873,37.304,17.984,38.395,18.2z
		 M35.021,33.792c0.004,0.002,0.007,0.002,0.011,0.002c0.601,0.088,1.217,0.131,1.835,0.131c1.631,0,3.203-0.309,4.594-0.873
		c0.364-0.568,0.559-1.173,0.559-1.786c0-0.583-0.178-1.162-0.511-1.706c-1.239,0.804-2.902,1.274-4.642,1.274
		c-0.47,0-0.939-0.033-1.389-0.099c-3.158-0.472-5.641-2.171-6.581-4.322c-1.04,0.253-2.013,0.613-2.898,1.06
		C27.319,30.667,30.713,33.147,35.021,33.792z"/>
</g>
</svg>
