<?xml version="1.0" encoding="utf-8"?>
<!-- Generator: Adobe Illustrator 16.0.0, SVG Export Plug-In . SVG Version: 6.00 Build 0)  -->
<svg version="1.2" baseProfile="tiny" id="Layer_1" xmlns="http://www.w3.org/2000/svg" xmlns:xlink="http://www.w3.org/1999/xlink"
	 x="0px" y="0px" viewBox="0 0 64 64" xml:space="preserve">
<g>
	<path fill="#FFFFFF" d="M48.436,30.109c0,1.945-0.302,3.729-0.904,5.344c-0.604,1.617-1.453,2.873-2.549,3.762
		c-1.097,0.893-2.357,1.336-3.783,1.336c-1.179,0-2.172-0.355-2.979-1.068c-0.81-0.713-1.289-1.623-1.44-2.732h-0.163
		c-0.549,1.191-1.333,2.123-2.354,2.795c-1.021,0.672-2.23,1.006-3.629,1.006c-2.055,0-3.662-0.701-4.819-2.105
		c-1.159-1.404-1.737-3.312-1.737-5.726c0-2.795,0.809-5.067,2.426-6.814c1.616-1.747,3.741-2.621,6.372-2.621
		c0.932,0,1.987,0.085,3.166,0.256c1.179,0.171,2.241,0.408,3.187,0.709l-0.515,9.662v0.453c0,2.438,0.912,3.658,2.734,3.658
		c1.247,0,2.262-0.736,3.042-2.209c0.782-1.475,1.173-3.389,1.173-5.747c0-2.48-0.508-4.652-1.521-6.516
		c-1.016-1.864-2.457-3.3-4.327-4.307s-4.019-1.511-6.444-1.511c-3.058,0-5.715,0.634-7.977,1.901
		c-2.261,1.268-3.988,3.077-5.181,5.427c-1.191,2.351-1.788,5.067-1.788,8.15c0,4.182,1.103,7.395,3.31,9.643
		c2.206,2.246,5.387,3.371,9.538,3.371c2.878,0,5.866-0.592,8.963-1.77v2.734c-2.631,1.15-5.618,1.727-8.963,1.727
		c-4.975,0-8.836-1.365-11.583-4.1c-2.748-2.734-4.122-6.555-4.122-11.461c0-3.563,0.733-6.736,2.2-9.518
		c1.466-2.782,3.557-4.937,6.27-6.465c2.713-1.528,5.824-2.292,9.333-2.292c2.946,0,5.567,0.62,7.863,1.861
		c2.294,1.24,4.069,3.001,5.323,5.283S48.436,27.135,48.436,30.109z M27.18,32.802c0,3.481,1.336,5.221,4.009,5.221
		c2.837,0,4.378-2.145,4.625-6.434l0.288-5.366c-0.986-0.273-2.062-0.411-3.228-0.411c-1.781,0-3.175,0.617-4.183,1.85
		C27.684,28.896,27.18,30.61,27.18,32.802z"/>
</g>
</svg>
