<?xml version="1.0" encoding="utf-8"?>
<!-- Generator: Adobe Illustrator 16.0.0, SVG Export Plug-In . SVG Version: 6.00 Build 0)  -->
<svg version="1.2" baseProfile="tiny" id="Layer_1" xmlns="http://www.w3.org/2000/svg" xmlns:xlink="http://www.w3.org/1999/xlink"
	 x="0px" y="0px" viewBox="0 0 64 64" xml:space="preserve">
<g id="krecRE_1_">
	<g>
		<g>
			<path fill="#FFFFFF" d="M25.048,47.421c-8.068-3.268-12.163-13.192-8.952-21.492c3.35-8.654,12.985-13.063,21.662-9.911
				c8.818,3.206,13.317,12.661,10.277,21.603c-2.834,8.337-12.434,13.288-20.502,10.686c0.888-2.69,1.774-5.379,2.648-8.023
				c2.592,2.363,6.031,2.444,9.04,0.138c3.721-2.852,5.374-9.473,3.388-13.731c-1.6-3.429-4.399-5.359-8.072-5.839
				c-4.847-0.633-9.129,0.59-12.132,4.708c-2.162,2.965-2.612,6.252-1.099,9.685c0.481,1.092,1.297,1.904,2.37,2.445
				c0.628,0.319,1.02,0.177,1.242-0.529c0.298-0.95,0.282-1.725-0.329-2.656c-1.271-1.937-0.917-4.06-0.074-6.074
				c1.994-4.762,8.849-6.444,12.686-3.153c1.261,1.083,1.892,2.496,1.998,4.104c0.162,2.436-0.216,4.792-1.388,6.972
				c-0.696,1.292-1.653,2.306-3.142,2.667c-2.265,0.547-3.945-1.092-3.395-3.348c0.369-1.516,0.84-3.006,1.244-4.514
				c0.104-0.387,0.159-0.795,0.176-1.197c0.049-1.158-0.493-2.136-1.359-2.514c-0.934-0.408-2.156-0.14-2.94,0.716
				c-1.433,1.565-1.504,3.409-1.084,5.377c0.137,0.643,0.157,1.365,0.019,2.006c-0.644,2.996-1.394,5.969-2.034,8.966
				C25.094,45.43,25.128,46.396,25.048,47.421z"/>
		</g>
	</g>
</g>
</svg>
