<?xml version="1.0" encoding="utf-8"?>
<!-- Generator: Adobe Illustrator 16.0.0, SVG Export Plug-In . SVG Version: 6.00 Build 0)  -->
<svg version="1.2" baseProfile="tiny" id="Layer_1" xmlns="http://www.w3.org/2000/svg" xmlns:xlink="http://www.w3.org/1999/xlink"
	 x="0px" y="0px" viewBox="0 0 64 64" xml:space="preserve">
<rect x="22.85" y="41.591" fill="#FFFFFF" width="13.423" height="2.867"/>
<rect x="36.072" y="20.418" transform="matrix(0.171 0.9853 -0.9853 0.171 56.9948 -24.0395)" fill="#FFFFFF" width="13.422" height="2.867"/>
<rect x="23.071" y="37.289" transform="matrix(0.9958 0.0917 -0.0917 0.9958 3.6754 -2.5672)" fill="#FFFFFF" width="13.422" height="2.868"/>
<rect x="23.914" y="32.38" transform="matrix(0.9657 0.2597 -0.2597 0.9657 9.8331 -6.7938)" fill="#FFFFFF" width="13.423" height="2.865"/>
<rect x="25.949" y="27.283" transform="matrix(0.8613 0.5081 -0.5081 0.8613 19.1198 -12.6119)" fill="#FFFFFF" width="13.425" height="2.866"/>
<rect x="30.329" y="22.711" transform="matrix(0.5634 0.8262 -0.8262 0.5634 36.1179 -20.06)" fill="#FFFFFF" width="13.423" height="2.868"/>
<path fill="#FFFFFF" d="M38.554,35.025v11.719H20.947V35.025h-2.292v13.969h0.022c0,0.012,0.669,0.012,0.669,0.012h21.478v-0.012
	c0.022,0,0.022-0.67,0.022-0.67V35.025H38.554z"/>
</svg>
