<?xml version="1.0" encoding="utf-8"?>
<!-- Generator: Adobe Illustrator 16.0.0, SVG Export Plug-In . SVG Version: 6.00 Build 0)  -->
<svg version="1.2" baseProfile="tiny" id="Layer_1" xmlns="http://www.w3.org/2000/svg" xmlns:xlink="http://www.w3.org/1999/xlink"
	 x="0px" y="0px"  viewBox="0 0 64 64" xml:space="preserve">
<path fill-rule="evenodd" fill="#FFFFFF" d="M25.85,15.083h7.158c4.542,0,9.814,5.075,9.814,9.908v0.949
	c0,1.063,0.858,1.974,2.313,1.974h1.485c1.835,0,2.274,1.019,2.274,2.528v8.122c0,5.693-4.807,10.352-10.351,10.352H24.956
	c-4.993,0-9.852-4.607-9.852-10.252V25.829C15.104,19.82,19.84,15.083,25.85,15.083L25.85,15.083z M25.85,23.977h6.141
	c1.084,0,1.97,0.885,1.97,1.968c0,1.078-0.891,1.97-1.97,1.97H25.85c-1.083,0-1.968-0.886-1.968-1.97
	C23.882,24.868,24.773,23.977,25.85,23.977L25.85,23.977z M25.85,36.215h12.205c1.082,0,1.968,0.885,1.968,1.967
	c0,1.078-0.893,1.971-1.968,1.971H25.85c-1.081,0-1.968-0.887-1.968-1.971C23.882,37.104,24.773,36.215,25.85,36.215L25.85,36.215z"
	/>
</svg>
