<?xml version="1.0" encoding="utf-8"?>
<!-- Generator: Adobe Illustrator 16.0.0, SVG Export Plug-In . SVG Version: 6.00 Build 0)  -->
<!DOCTYPE svg PUBLIC "-//W3C//DTD SVG 1.1//EN" "http://www.w3.org/Graphics/SVG/1.1/DTD/svg11.dtd">
<svg version="1.1" id="Layer_1" xmlns="http://www.w3.org/2000/svg" xmlns:xlink="http://www.w3.org/1999/xlink" x="0px" y="0px"
	 viewBox="0 0 64 64" enable-background="new 0 0 64 64" xml:space="preserve">
<path fill="#FFFFFF" d="M31.971,45.947c-8.416,0-15.262-4.596-15.262-10.242c0-5.648,6.846-10.244,15.262-10.244
	c8.415,0,15.261,4.596,15.261,10.244C47.231,41.352,40.386,45.947,31.971,45.947z M31.971,26.691
	c-7.738,0-14.033,4.043-14.033,9.014s6.294,9.014,14.033,9.014c7.737,0,14.032-4.043,14.032-9.014S39.708,26.691,31.971,26.691z"/>
<g>
	<path fill="#FFFFFF" d="M43.817,23.673c-1.762,0-3.195-1.433-3.195-3.195s1.434-3.196,3.195-3.196s3.196,1.434,3.196,3.196
		S45.579,23.673,43.817,23.673z M43.817,18.511c-1.084,0-1.966,0.882-1.966,1.967s0.882,1.966,1.966,1.966
		c1.085,0,1.967-0.882,1.967-1.966S44.902,18.511,43.817,18.511z"/>
</g>
<g>
	<path fill="#FFFFFF" d="M17.032,34.656c-1.244-0.69-2.016-2.002-2.016-3.424c0-2.158,1.755-3.913,3.913-3.913
		c1.045,0,2.027,0.408,2.767,1.146l-0.87,0.87c-0.507-0.507-1.181-0.787-1.897-0.787c-1.479,0-2.684,1.204-2.684,2.684
		c0,0.975,0.53,1.875,1.383,2.35L17.032,34.656z"/>
</g>
<g>
	<path fill="#FFFFFF" d="M46.968,34.656l-0.597-1.074c0.854-0.475,1.384-1.375,1.384-2.35c0-1.48-1.204-2.684-2.685-2.684
		c-0.716,0-1.39,0.279-1.897,0.787l-0.869-0.87c0.739-0.738,1.722-1.146,2.767-1.146c2.157,0,3.913,1.755,3.913,3.913
		C48.983,32.654,48.211,33.966,46.968,34.656z"/>
</g>
<g>
	<circle fill="#FFFFFF" cx="27.122" cy="33.896" r="2.405"/>
</g>
<g>
	<circle fill="#FFFFFF" cx="37.159" cy="33.896" r="2.404"/>
</g>
<g>
	<path fill="#FFFFFF" d="M32.073,26.418c-0.067,0-0.136-0.011-0.204-0.035c-0.321-0.112-0.488-0.463-0.375-0.783l2.779-7.897
		l6.82,1.631c0.33,0.079,0.534,0.411,0.455,0.741s-0.412,0.533-0.74,0.455l-5.744-1.374l-2.411,6.852
		C32.564,26.26,32.327,26.418,32.073,26.418z"/>
</g>
<g>
	<path fill="#FFFFFF" d="M31.942,42.23c-3.919,0-5.487-1.779-5.551-1.855c-0.221-0.258-0.191-0.646,0.067-0.867
		c0.257-0.219,0.641-0.191,0.863,0.064C27.356,39.609,28.665,41,31.942,41c3.334,0,4.797-1.439,4.812-1.453
		c0.235-0.24,0.624-0.248,0.867-0.01c0.241,0.234,0.251,0.619,0.017,0.861C37.567,40.475,35.841,42.23,31.942,42.23z"/>
</g>
</svg>
