<?xml version="1.0" encoding="utf-8"?>
<!-- Generator: Adobe Illustrator 16.0.0, SVG Export Plug-In . SVG Version: 6.00 Build 0)  -->
<svg version="1.2" baseProfile="tiny" id="Layer_1" xmlns="http://www.w3.org/2000/svg" xmlns:xlink="http://www.w3.org/1999/xlink"
	 x="0px" y="0px" viewBox="0 0 64 64" xml:space="preserve">
<g>
	<path fill="#FFFFFF" d="M15.566,16.716c0,0,30.881-1.521,33.317,31.034h-6.238c0,0,1.219-23.731-27.079-25.862V16.716
		L15.566,16.716z"/>
	<path fill="#FFFFFF" d="M15.566,27.519c0,0,18.105-0.61,21.603,20.231h-6.237c0,0-0.76-12.321-15.366-15.064V27.519L15.566,27.519z
		"/>
	<path fill="#FFFFFF" d="M18.956,41.09c2.183,0,3.956,1.767,3.956,3.954c0,2.185-1.773,3.956-3.956,3.956
		C16.771,49,15,47.229,15,45.044C15,42.858,16.771,41.09,18.956,41.09z"/>
</g>
</svg>
