<?xml version="1.0" encoding="utf-8"?>
<!-- Generator: Adobe Illustrator 16.0.0, SVG Export Plug-In . SVG Version: 6.00 Build 0)  -->
<svg version="1.2" baseProfile="tiny" id="Layer_1" xmlns="http://www.w3.org/2000/svg" xmlns:xlink="http://www.w3.org/1999/xlink"
	 x="0px" y="0px" viewBox="0 0 64 64" xml:space="preserve">
<path id="icon" fill="#FFFFFF" d="M33.797,28.682l2.32,1.081l3.458-1.032v-2.4c-0.122-4.085-3.46-7.361-7.575-7.361
	c-4.1,0-7.429,3.252-7.576,7.316V37.25c0,0.993-0.805,1.798-1.797,1.798c-0.993,0-1.797-0.805-1.797-1.798v-4.647h-5.81
	c0,0,0,4.655,0,4.71c0,4.192,3.398,7.59,7.591,7.59c4.155,0,7.524-3.34,7.582-7.481l0.009-10.829c0-0.993,0.804-1.797,1.797-1.797
	s1.796,0.805,1.796,1.797V28.682z M43.17,32.603v4.865c0,0.991-0.805,1.796-1.797,1.796c-0.993,0-1.798-0.805-1.798-1.796v-4.771
	l-3.458,1.032l-2.32-1.081v4.732c0.037,4.16,3.422,7.522,7.592,7.522c4.192,0,7.591-3.397,7.591-7.59c0-0.055,0-4.71,0-4.71H43.17z"
	/>
</svg>
