<?xml version="1.0" encoding="utf-8"?>
<!-- Generator: Adobe Illustrator 16.0.0, SVG Export Plug-In . SVG Version: 6.00 Build 0)  -->
<!DOCTYPE svg PUBLIC "-//W3C//DTD SVG 1.1//EN" "http://www.w3.org/Graphics/SVG/1.1/DTD/svg11.dtd">
<svg version="1.1" id="Layer_1" xmlns="http://www.w3.org/2000/svg" xmlns:xlink="http://www.w3.org/1999/xlink" x="0px" y="0px"
	 viewBox="0 0 64 64" enable-background="new 0 0 64 64" xml:space="preserve">
<g>
	<path fill="#FFFFFF" d="M21.093,15.015h2.239l1.442,5.754h0.14l1.375-5.754h2.26l-2.588,8.422v5.973h-2.223v-5.704L21.093,15.015z"
		/>
	<path fill="#FFFFFF" d="M28.449,21.218c0-0.822,0.265-1.477,0.797-1.964c0.532-0.487,1.245-0.731,2.143-0.731
		c0.817,0,1.486,0.258,2.007,0.771c0.521,0.514,0.783,1.175,0.783,1.984v5.484c0,0.908-0.258,1.621-0.768,2.139
		c-0.514,0.518-1.216,0.776-2.114,0.776c-0.864,0-1.555-0.268-2.072-0.802c-0.519-0.533-0.777-1.252-0.777-2.153V21.218z
		 M30.48,26.921c0,0.293,0.069,0.519,0.211,0.678c0.14,0.16,0.341,0.238,0.603,0.238c0.268,0,0.479-0.08,0.637-0.243
		c0.158-0.163,0.236-0.387,0.236-0.673v-5.783c0-0.23-0.08-0.419-0.241-0.562c-0.159-0.142-0.371-0.214-0.632-0.214
		c-0.24,0-0.438,0.072-0.588,0.214c-0.15,0.143-0.226,0.331-0.226,0.562V26.921z"/>
	<path fill="#FFFFFF" d="M41.49,18.791V29.41h-1.975v-1.172c-0.363,0.432-0.742,0.761-1.136,0.986
		c-0.396,0.225-0.776,0.339-1.146,0.339c-0.457,0-0.801-0.157-1.033-0.475c-0.23-0.315-0.348-0.79-0.348-1.423V18.79h1.975v8.141
		c0,0.252,0.041,0.434,0.125,0.546c0.082,0.112,0.217,0.169,0.402,0.169c0.145,0,0.328-0.074,0.551-0.223
		c0.221-0.15,0.424-0.34,0.609-0.572V18.79L41.49,18.791L41.49,18.791z"/>
</g>
<path opacity="0.5" fill="#FFFFFF" d="M40.652,38.467c-0.254,0-0.438,0.078-0.547,0.232c-0.113,0.156-0.168,0.414-0.168,0.773v0.87
	h1.414v-0.87c0-0.359-0.058-0.617-0.166-0.773C41.074,38.545,40.896,38.467,40.652,38.467z"/>
<path opacity="0.5" fill="#FFFFFF" d="M34.775,38.436c-0.115,0-0.229,0.027-0.338,0.084c-0.111,0.056-0.222,0.144-0.33,0.263v5.356
	c0.131,0.141,0.256,0.24,0.379,0.303c0.121,0.062,0.25,0.093,0.387,0.093c0.195,0,0.338-0.062,0.432-0.183
	c0.092-0.119,0.137-0.317,0.137-0.592V39.32c0-0.291-0.057-0.51-0.17-0.66C35.156,38.51,34.992,38.436,34.775,38.436z"/>
<path opacity="0.5" fill="#FFFFFF" d="M44.998,35.182c0-2.076-1.705-3.761-3.805-3.761c-2.998-0.125-6.064-0.181-9.193-0.175
	c-3.128-0.006-6.195,0.05-9.192,0.175c-2.101,0-3.805,1.685-3.805,3.761c-0.126,1.646-0.181,3.289-0.176,4.935
	c-0.005,1.643,0.05,3.288,0.176,4.932c0,2.076,1.704,3.763,3.805,3.763c2.997,0.125,6.064,0.182,9.192,0.176
	c3.128,0.006,6.195-0.051,9.193-0.176c2.1,0,3.805-1.687,3.805-3.763c0.127-1.644,0.18-3.289,0.176-4.932
	C45.178,38.471,45.125,36.826,44.998,35.182z M24.532,45.773h-1.801v-9.961H20.87v-1.691h5.523v1.691h-1.861V45.773z M30.935,45.773
	h-1.599v-0.947c-0.295,0.35-0.602,0.617-0.92,0.799s-0.628,0.273-0.928,0.273c-0.369,0-0.648-0.127-0.836-0.383
	c-0.188-0.257-0.281-0.642-0.281-1.152v-7.187h1.6v6.591c0,0.205,0.032,0.352,0.1,0.442c0.067,0.09,0.176,0.138,0.325,0.138
	c0.118,0,0.267-0.062,0.445-0.183c0.18-0.121,0.345-0.272,0.495-0.463v-6.525h1.599V45.773z M37.088,43.994
	c0,0.609-0.127,1.078-0.377,1.402s-0.611,0.485-1.084,0.485c-0.314,0-0.592-0.062-0.838-0.188c-0.244-0.125-0.471-0.319-0.682-0.582
	v0.66h-1.613v-11.65h1.613v3.752c0.215-0.264,0.444-0.463,0.686-0.6c0.244-0.138,0.488-0.205,0.736-0.205
	c0.506,0,0.893,0.184,1.158,0.551c0.268,0.367,0.399,0.902,0.399,1.605L37.088,43.994L37.088,43.994z M42.994,41.678h-3.057v1.621
	c0,0.453,0.053,0.766,0.158,0.941c0.106,0.174,0.286,0.262,0.541,0.262c0.264,0,0.448-0.074,0.555-0.223
	c0.104-0.146,0.16-0.475,0.16-0.98v-0.598h1.643v0.646c0,0.883-0.199,1.545-0.6,1.989c-0.4,0.447-1,0.67-1.795,0.67
	c-0.716,0-1.277-0.235-1.689-0.709c-0.412-0.475-0.617-1.123-0.617-1.95V39.49c0-0.748,0.225-1.355,0.678-1.826
	c0.451-0.469,1.035-0.703,1.75-0.703c0.732,0,1.293,0.217,1.687,0.652c0.393,0.435,0.588,1.061,0.588,1.877L42.994,41.678
	L42.994,41.678z"/>
</svg>
