<?xml version="1.0" encoding="utf-8"?>
<!-- Generator: Adobe Illustrator 16.0.0, SVG Export Plug-In . SVG Version: 6.00 Build 0)  -->
<!DOCTYPE svg PUBLIC "-//W3C//DTD SVG 1.1//EN" "http://www.w3.org/Graphics/SVG/1.1/DTD/svg11.dtd">
<svg version="1.1" id="Layer_1" xmlns="http://www.w3.org/2000/svg" xmlns:xlink="http://www.w3.org/1999/xlink" x="0px" y="0px"
	  viewBox="0 0 64 64" enable-background="new 0 0 64 64" xml:space="preserve">
<g>
	<g>
		<g>
			<path fill="#3E3E3F" d="M28.639,30.995c0.687-0.352,1.206-0.74,1.559-1.164c0.63-0.759,0.946-1.761,0.946-3.009
				c0-1.21-0.312-2.25-0.937-3.119c-1.039-1.415-2.805-2.14-5.296-2.177h-9.875v20.436h9.208c1.039,0,2-0.094,2.888-0.279
				c0.887-0.184,1.656-0.527,2.309-1.025c0.579-0.434,1.061-0.973,1.447-1.609c0.605-0.96,0.91-2.047,0.91-3.258
				c0-1.174-0.265-2.172-0.796-2.994C30.468,31.976,29.682,31.374,28.639,30.995z M19.111,25.076h4.445
				c0.979,0,1.785,0.106,2.416,0.319c0.731,0.305,1.098,0.935,1.098,1.886c0,0.859-0.276,1.458-0.831,1.796
				c-0.554,0.337-1.274,0.505-2.161,0.505h-4.967V25.076z M26.141,38.051c-0.494,0.241-1.183,0.36-2.068,0.36h-4.961v-5.447h5.03
				c0.876,0.008,1.558,0.123,2.042,0.348c0.867,0.396,1.302,1.127,1.302,2.189C27.485,36.757,27.036,37.608,26.141,38.051z
				 M48.828,32.515c-0.184-1.185-0.584-2.226-1.202-3.123c-0.689-1.018-1.559-1.764-2.612-2.236
				c-1.056-0.472-2.239-0.708-3.555-0.708c-2.215,0-4.017,0.698-5.403,2.095c-1.388,1.396-2.082,3.405-2.082,6.021
				c0,2.794,0.768,4.811,2.306,6.051c1.537,1.24,3.312,1.859,5.322,1.859c2.437,0,4.332-0.736,5.687-2.205
				c0.871-0.924,1.357-1.834,1.464-2.73h-4.035c-0.234,0.443-0.504,0.79-0.812,1.037c-0.563,0.465-1.293,0.697-2.194,0.697
				c-0.848,0-1.574-0.191-2.179-0.57c-0.992-0.609-1.519-1.673-1.579-3.188h11.008C48.978,34.21,48.936,33.21,48.828,32.515z
				 M38.051,32.907c0.144-0.982,0.494-1.763,1.053-2.338c0.558-0.576,1.344-0.865,2.358-0.865c0.933,0,1.712,0.272,2.342,0.816
				c0.63,0.543,0.981,1.34,1.053,2.387H38.051z"/>
		</g>
	</g>
	<path fill="#3E3E3F" d="M35.335,21.691h12.129v1.967H35.335V21.691z"/>
</g>
</svg>
