<?xml version="1.0" encoding="utf-8"?>
<!-- Generator: Adobe Illustrator 16.0.0, SVG Export Plug-In . SVG Version: 6.00 Build 0)  -->
<svg version="1.2" baseProfile="tiny" id="Layer_1" xmlns="http://www.w3.org/2000/svg" xmlns:xlink="http://www.w3.org/1999/xlink"
	 x="0px" y="0px" viewBox="0 0 64 64" xml:space="preserve">
<path fill="#3E3E3F" d="M43.711,29.14c-3.778,0-6.044,3.954-6.044,3.954s-1.89-3.954-6.045-3.954c-4.155,0-4.912,3.56-4.912,3.56
	s-1.132-3.165-4.531-3.165c-2.266,0-3.403,1.189-3.403,1.189l0.757-3.56h6.802V24h-9.068l-1.888,9.49h3.397
	c0,0,0.757-1.581,2.648-1.581c1.888,0,2.645,1.581,2.645,3.161c0,1.584-1.512,3.165-3.023,3.165c-2.27,0-2.645-2.374-2.645-2.374H15
	c0,0,0.754,5.14,5.666,5.14c4.911,0,6.043-3.161,6.043-3.161S27.466,41,31.622,41c4.156,0,6.045-3.556,6.045-3.556
	S39.933,41,43.711,41c3.779,0,5.29-2.766,5.29-5.931C49.001,31.909,47.49,29.14,43.711,29.14z M31.146,37.839
	c-1.888,0-3.02-1.186-3.02-2.77c0-1.58,1.132-2.766,3.02-2.766c1.891,0,3.778,2.766,3.778,2.766S33.036,37.839,31.146,37.839z
	 M42.481,37.839c-1.89,0-3.779-2.77-3.779-2.77s1.89-2.766,3.779-2.766c1.889,0,3.022,1.186,3.022,2.766
	C45.504,36.653,44.37,37.839,42.481,37.839z"/>
</svg>
