<?xml version="1.0" encoding="utf-8"?>
<!-- Generator: Adobe Illustrator 16.0.0, SVG Export Plug-In . SVG Version: 6.00 Build 0)  -->
<svg version="1.2" baseProfile="tiny" id="Layer_1" xmlns="http://www.w3.org/2000/svg" xmlns:xlink="http://www.w3.org/1999/xlink"
	 x="0px" y="0px" viewBox="0 0 64 64" xml:space="preserve">
<g>
	<polygon id="Plus" fill="#3E3E3F" points="49,24 43,24 43,18 42,18 42,24 36,24 36,25 42,25 42,31 43,31 43,25 49,25 	"/>
	<path id="g" fill="#3E3E3F" d="M29.729,34.547c-0.804-0.57-2.344-1.955-2.344-2.769c0-0.954,0.271-1.424,1.708-2.547
		c1.472-1.151,2.514-2.988,2.514-4.869c0-2.239-0.998-4.362-2.869-5.362h2.822l1.992-1c0,0-6.676,0-8.901,0
		c-3.991,0-7.747,3.023-7.747,6.526c0,3.579,2.721,6.468,6.78,6.468c0.283,0,0.557-0.006,0.826-0.025
		c-0.263,0.504-0.452,1.072-0.452,1.663c0,0.995,0.535,1.8,1.212,2.459c-0.512,0-1.005,0.014-1.544,0.014
		c-4.943,0-8.748,3.149-8.748,6.414c0,3.216,4.171,5.227,9.115,5.227c5.636,0,8.749-3.197,8.749-6.413
		C32.842,37.754,32.08,36.21,29.729,34.547z M24.973,30.086c-2.293-0.069-4.473-2.566-4.869-5.577
		c-0.396-3.012,1.142-5.317,3.435-5.249c2.293,0.069,4.474,2.486,4.869,5.497C28.804,27.769,27.266,30.154,24.973,30.086z
		 M24.075,45.323c-3.417,0-5.884-2.163-5.884-4.761c0-2.546,3.061-4.666,6.479-4.629c0.797,0.008,1.54,0.137,2.214,0.354
		c1.855,1.29,3.186,2.019,3.561,3.488c0.07,0.299,0.108,0.604,0.108,0.919C30.552,43.293,28.878,45.323,24.075,45.323z"/>
</g>
</svg>
