<?xml version="1.0" encoding="utf-8"?>
<!-- Generator: Adobe Illustrator 16.0.0, SVG Export Plug-In . SVG Version: 6.00 Build 0)  -->
<!DOCTYPE svg PUBLIC "-//W3C//DTD SVG 1.1//EN" "http://www.w3.org/Graphics/SVG/1.1/DTD/svg11.dtd">
<svg version="1.1" id="Layer_1" xmlns="http://www.w3.org/2000/svg" xmlns:xlink="http://www.w3.org/1999/xlink" x="0px" y="0px"
	viewBox="0 0 64 64" enable-background="new 0 0 64 64" xml:space="preserve">
<path fill="#3E3E3F" d="M29.997,39.371l-1.245-3.384c0,0-2.023,2.257-5.057,2.257c-2.685,0-4.59-2.336-4.59-6.069
	c0-4.785,2.412-6.497,4.785-6.497c3.423,0,4.512,2.217,5.446,5.057l1.245,3.891c1.245,3.772,3.579,6.808,10.309,6.808
	c4.824,0,8.092-1.479,8.092-5.369c0-3.15-1.79-4.784-5.136-5.562l-2.489-0.544c-1.711-0.389-2.218-1.089-2.218-2.256
	c0-1.323,1.051-2.102,2.763-2.102c1.867,0,2.878,0.701,3.034,2.374l3.89-0.467c-0.311-3.501-2.723-4.94-6.69-4.94
	c-3.501,0-6.924,1.322-6.924,5.562c0,2.646,1.283,4.318,4.512,5.096l2.646,0.623c1.984,0.467,2.645,1.283,2.645,2.412
	c0,1.438-1.399,2.021-4.045,2.021c-3.93,0-5.562-2.061-6.496-4.901l-1.284-3.889c-1.633-5.057-4.24-6.924-9.414-6.924
	c-5.718,0-8.753,3.618-8.753,9.764c0,5.914,3.035,9.103,8.481,9.103C27.896,41.434,29.997,39.371,29.997,39.371L29.997,39.371z"/>
</svg>
