<?xml version="1.0" encoding="utf-8"?>
<!-- Generator: Adobe Illustrator 16.0.0, SVG Export Plug-In . SVG Version: 6.00 Build 0)  -->
<svg version="1.2" baseProfile="tiny" id="Layer_1" xmlns="http://www.w3.org/2000/svg" xmlns:xlink="http://www.w3.org/1999/xlink"
	 x="0px" y="0px" viewBox="0 0 64 64" xml:space="preserve">
<g>
	<g>
		<path fill="#3E3E3F" d="M18.648,16c-2.235,0-3.694,1.505-3.648,3.511c-0.046,1.915,1.415,3.466,3.604,3.466
			c2.28,0,3.739-1.551,3.739-3.466C22.297,17.505,20.883,16,18.648,16z M15.183,49.245h6.931V25.553h-6.931V49.245z M40.855,25.887
			c-2.217,0-4.477-0.458-6.887,3.279h-0.137l-0.121-3.612h-6.139c0.09,1.961,0.103,4.889,0.103,7.672v16.02h6.932V35.553
			c0-0.64,0.09-1.276,0.271-1.734c0.455-1.276,1.598-2.6,3.512-2.6c2.508,0,3.512,1.961,3.512,4.835v13.192h6.932V35.185
			C48.836,28.617,45.414,25.887,40.855,25.887z"/>
	</g>
</g>
</svg>
