<?xml version="1.0" encoding="utf-8"?>
<!-- Generator: Adobe Illustrator 16.0.0, SVG Export Plug-In . SVG Version: 6.00 Build 0)  -->
<!DOCTYPE svg PUBLIC "-//W3C//DTD SVG 1.1//EN" "http://www.w3.org/Graphics/SVG/1.1/DTD/svg11.dtd">
<svg version="1.1" id="Layer_1" xmlns="http://www.w3.org/2000/svg" xmlns:xlink="http://www.w3.org/1999/xlink" x="0px" y="0px"
	 viewBox="0 0 64 64" enable-background="new 0 0 64 64" xml:space="preserve">
<path fill="#3E3E3F" d="M49,21.46c-1.249,0.555-2.592,0.93-4.003,1.098c1.44-0.862,2.544-2.229,3.063-3.856
	c-1.345,0.799-2.836,1.379-4.427,1.691c-1.271-1.354-3.083-2.2-5.088-2.2c-3.849,0-6.969,3.12-6.969,6.97
	c0,0.546,0.062,1.078,0.18,1.589c-5.793-0.292-10.929-3.066-14.367-7.283c-0.6,1.03-0.944,2.227-0.944,3.505
	c0,2.417,1.23,4.551,3.101,5.801c-1.143-0.036-2.217-0.349-3.158-0.872c0,0.029,0,0.058,0,0.088c0,3.377,2.402,6.194,5.591,6.834
	c-0.586,0.161-1.201,0.243-1.836,0.243c-0.45,0-0.886-0.043-1.312-0.123c0.887,2.77,3.461,4.785,6.51,4.841
	c-2.385,1.871-5.391,2.985-8.656,2.985c-0.563,0-1.119-0.033-1.664-0.1c3.085,1.979,6.748,3.133,10.685,3.133
	c12.82,0,19.833-10.621,19.833-19.832c0-0.303-0.007-0.603-0.021-0.902C46.884,24.086,48.066,22.858,49,21.46z"/>
</svg>
