<?xml version="1.0" encoding="utf-8"?>
<!-- Generator: Adobe Illustrator 16.0.0, SVG Export Plug-In . SVG Version: 6.00 Build 0)  -->
<svg version="1.2" baseProfile="tiny" id="Layer_1" xmlns="http://www.w3.org/2000/svg" xmlns:xlink="http://www.w3.org/1999/xlink"
	 x="0px" y="0px" viewBox="0 0 64 64" xml:space="preserve">
<path fill="#3E3E3F" d="M36.068,24.385c0,0-4.026-0.257-1.113-2.74c2.91-2.483,7.363-3.597,11.131-1.028s3.854,6.336,0,5.908
	c0,0-1.969,5.737-6.422,10.532c-4.451,4.795-9.503,12.499-13.956,3.938c-4.452-8.561-2.997-10.788-5.223-14.896
	c0,0-8.905,1.627-4.024-1.884c4.881-3.509,10.616-6.507,10.958-2.226c0.343,4.281,1.884,14.384,4.709,13.784
	c2.826-0.598,5.736-6.677,5.994-9.074C38.381,24.299,36.068,24.385,36.068,24.385z"/>
</svg>
