<?xml version="1.0" encoding="utf-8"?>
<!-- Generator: Adobe Illustrator 16.0.0, SVG Export Plug-In . SVG Version: 6.00 Build 0)  -->
<svg version="1.2" baseProfile="tiny" id="Layer_1" xmlns="http://www.w3.org/2000/svg" xmlns:xlink="http://www.w3.org/1999/xlink"
	 x="0px" y="0px" width="64px" height="64px" viewBox="0 0 64 64" xml:space="preserve">
<g>
	<g>
		<path fill="#FFFFFF" d="M27.859,40.545c-6.999,0-12.693-5.694-12.693-12.694c0-7,5.695-12.696,12.693-12.696
			c7.002,0,12.698,5.695,12.698,12.696C40.558,34.851,34.861,40.545,27.859,40.545z M27.859,16.625
			c-6.188,0-11.224,5.036-11.224,11.226c0,6.189,5.035,11.226,11.224,11.226c6.191,0,11.229-5.036,11.229-11.226
			C39.088,21.66,34.051,16.625,27.859,16.625z"/>
	</g>
	<g>
		<path fill="#FFFFFF" d="M27.898,37.002c-5.11,0-9.267-4.159-9.267-9.269c0-5.11,4.157-9.267,9.267-9.267
			c5.11,0,9.27,4.157,9.27,9.267C37.168,32.843,33.009,37.002,27.898,37.002z M27.898,19.936c-4.3,0-7.798,3.497-7.798,7.797
			c0,4.301,3.498,7.799,7.798,7.799c4.301,0,7.8-3.499,7.8-7.799C35.698,23.433,32.199,19.936,27.898,19.936z"/>
	</g>
	<g>
		<path fill="#FFFFFF" d="M45.47,49.19c-0.983,0-1.904-0.38-2.595-1.072l-9.467-9.459l1.038-1.038l9.468,9.458
			c0.413,0.414,0.966,0.642,1.556,0.642h0.002c0.591-0.001,1.144-0.229,1.557-0.645c0.898-0.901,0.898-2.303,0.039-3.165
			l-9.432-9.453l1.039-1.039l9.433,9.454c1.43,1.436,1.43,3.768,0.002,5.201c-0.73,0.733-1.652,1.115-2.637,1.116
			C45.472,49.19,45.472,49.19,45.47,49.19z"/>
	</g>
	<g>
		<line fill="#231F20" x1="43.291" y1="46.95" x2="46.854" y2="43.389"/>
		
			<rect x="44.338" y="42.65" transform="matrix(0.7071 0.7071 -0.7071 0.7071 45.1411 -18.6414)" fill="#FFFFFF" width="1.469" height="5.038"/>
	</g>
	<g>
		<line fill="#231F20" x1="41.008" y1="44.759" x2="44.573" y2="41.195"/>
		
			<rect x="42.056" y="40.457" transform="matrix(0.7071 0.7071 -0.7071 0.7071 42.9224 -17.6698)" fill="#FFFFFF" width="1.469" height="5.041"/>
	</g>
	<path fill="#FFFFFF" d="M27.434,21.429l0.073,1.593l-0.115,0.006c-2.664,0.119-4.724,2.384-4.604,5.037l0.002,0.051l-1.427,0.063
		c-0.016-0.039-0.019-0.088-0.021-0.128c-0.077-1.748,0.567-3.359,1.663-4.559c1.096-1.198,2.643-1.983,4.39-2.061L27.434,21.429z"
		/>
</g>
</svg>
