<?xml version="1.0" encoding="utf-8"?>
<!-- Generator: Adobe Illustrator 16.0.0, SVG Export Plug-In . SVG Version: 6.00 Build 0)  -->
<svg version="1.2" baseProfile="tiny" id="Layer_1" xmlns="http://www.w3.org/2000/svg" xmlns:xlink="http://www.w3.org/1999/xlink"
	 x="0px" y="0px" viewBox="0 0 64 64" xml:space="preserve">
<g>
	<path fill="#FFFFFF" d="M0,0v64h64V0H0z M47.532,35.453c-0.604,1.617-1.453,2.873-2.55,3.762c-1.096,0.893-2.356,1.336-3.782,1.336
		c-1.179,0-2.173-0.355-2.979-1.068c-0.81-0.713-1.289-1.623-1.439-2.731h-0.163c-0.55,1.19-1.333,2.123-2.354,2.795
		c-1.021,0.672-2.229,1.006-3.629,1.006c-2.055,0-3.662-0.7-4.818-2.104c-1.159-1.404-1.737-3.312-1.737-5.727
		c0-2.795,0.81-5.067,2.426-6.813c1.616-1.747,3.741-2.621,6.372-2.621c0.932,0,1.987,0.085,3.166,0.256
		c1.18,0.171,2.241,0.408,3.188,0.709l-0.516,9.662v0.453c0,2.438,0.912,3.657,2.734,3.657c1.246,0,2.262-0.735,3.042-2.209
		c0.782-1.475,1.173-3.389,1.173-5.747c0-2.48-0.508-4.652-1.521-6.516c-1.016-1.864-2.457-3.3-4.326-4.307
		c-1.871-1.007-4.02-1.511-6.444-1.511c-3.058,0-5.715,0.634-7.978,1.901c-2.261,1.268-3.987,3.077-5.181,5.427
		c-1.19,2.351-1.788,5.067-1.788,8.15c0,4.183,1.104,7.396,3.311,9.644c2.205,2.246,5.387,3.371,9.537,3.371
		c2.879,0,5.867-0.593,8.963-1.771v2.733c-2.631,1.15-5.617,1.728-8.963,1.728c-4.975,0-8.836-1.365-11.582-4.101
		c-2.748-2.733-4.123-6.555-4.123-11.461c0-3.562,0.733-6.735,2.201-9.518c1.465-2.782,3.557-4.937,6.27-6.465
		s5.824-2.292,9.333-2.292c2.946,0,5.567,0.62,7.862,1.861c2.295,1.24,4.07,3.001,5.324,5.283c1.254,2.282,1.877,4.91,1.877,7.884
		C48.436,32.054,48.134,33.838,47.532,35.453z"/>
	<path fill="#FFFFFF" d="M28.691,27.662c-1.008,1.234-1.512,2.948-1.512,5.14c0,3.481,1.336,5.222,4.01,5.222
		c2.836,0,4.377-2.146,4.625-6.435l0.287-5.366c-0.985-0.273-2.062-0.411-3.228-0.411C31.093,25.812,29.699,26.429,28.691,27.662z"
		/>
</g>
</svg>
