<?xml version="1.0" encoding="utf-8"?>
<!-- Generator: Adobe Illustrator 16.0.0, SVG Export Plug-In . SVG Version: 6.00 Build 0)  -->
<svg version="1.2" baseProfile="tiny" id="Layer_1" xmlns="http://www.w3.org/2000/svg" xmlns:xlink="http://www.w3.org/1999/xlink"
	 x="0px" y="0px" viewBox="0 0 64 64" xml:space="preserve">
<path fill="#3E3E3F" d="M47.176,15H16.693C15.758,15,15,15.758,15,16.693v30.482c0,0.936,0.758,1.695,1.693,1.695h30.482
	c0.936,0,1.694-0.76,1.694-1.695V16.693C48.87,15.758,48.111,15,47.176,15z M47.779,46.988c0,0.437-0.354,0.791-0.791,0.791H16.883
	c-0.438,0-0.792-0.354-0.792-0.791v-3.101l17.405-4.756l-5.207-10.75c1.98-0.429,13.048-2.51,17.218,3.553l-7.127,1.79l-2.245-4.785
	h-6.2l4.892,9.828l12.952-3.538V46.988z M23.338,29.978l3.029,6.63l-6.732,1.607C18.204,34.78,20.416,31.479,23.338,29.978z
	 M47.779,26.955c-8.791-2.886-16.085-2.466-20.894-1.471l-1.514-3.125h-5.516l2.102,4.583c-0.011,0.005-0.023,0.009-0.034,0.014
	c-3.166,1.295-5.833,3.524-5.833,3.524V16.883c0-0.438,0.354-0.792,0.792-0.792h30.105c0.437,0,0.791,0.354,0.791,0.792V26.955z"/>
</svg>
