<?xml version="1.0" encoding="utf-8"?>
<!-- Generator: Adobe Illustrator 16.0.0, SVG Export Plug-In . SVG Version: 6.00 Build 0)  -->
<!DOCTYPE svg PUBLIC "-//W3C//DTD SVG 1.1//EN" "http://www.w3.org/Graphics/SVG/1.1/DTD/svg11.dtd">
<svg version="1.1" id="Layer_1" xmlns="http://www.w3.org/2000/svg" xmlns:xlink="http://www.w3.org/1999/xlink" x="0px" y="0px"
	  viewBox="0 0 64 64" enable-background="new 0 0 64 64" xml:space="preserve">
<path fill="#3E3E3F" d="M39.926,45.805c0.037-0.996,0.005-1.994-0.091-2.986c-0.094-0.991-0.305-1.889-0.633-2.699
	c-0.327-0.813-0.885-1.383-1.682-1.711c3.243-0.342,5.744-1.292,7.5-2.843c1.758-1.552,2.639-4.025,2.639-7.422
	c0-1.14-0.195-2.237-0.586-3.308c-0.385-1.071-0.971-2.052-1.741-2.949c0.105-0.396,0.17-0.786,0.206-1.166
	c0.037-0.375,0.049-0.765,0.049-1.16c0-0.708-0.08-1.493-0.244-2.358c-0.162-0.861-0.433-1.594-0.812-2.195H44.22
	c-0.743-0.031-1.424,0.037-2.042,0.222c-0.622,0.18-1.208,0.417-1.762,0.707c-0.548,0.295-1.086,0.623-1.613,0.971
	c-0.528,0.354-1.093,0.696-1.694,1.023c-0.57-0.068-1.134-0.121-1.693-0.158c-0.56-0.032-1.129-0.053-1.698-0.053
	c-0.564,0-1.129,0.021-1.688,0.053c-0.559,0.037-1.129,0.089-1.698,0.158c-0.602-0.311-1.167-0.648-1.689-1.007
	c-0.527-0.364-1.065-0.691-1.62-0.986c-0.554-0.291-1.134-0.527-1.746-0.707c-0.612-0.185-1.298-0.253-2.058-0.222h-0.306
	c-0.401,0.602-0.675,1.334-0.833,2.195c-0.153,0.865-0.231,1.65-0.231,2.358c0,0.395,0.021,0.786,0.052,1.176
	c0.037,0.385,0.105,0.77,0.211,1.15c-0.781,0.875-1.351,1.863-1.721,2.949c-0.375,1.081-0.559,2.189-0.559,3.308
	c0,3.328,0.823,5.766,2.469,7.321c1.646,1.551,4.072,2.518,7.28,2.892c-0.67,0.28-1.182,0.712-1.541,1.297
	c-0.349,0.586-0.633,1.234-0.833,1.938c-0.47,0.142-0.897,0.273-1.287,0.4c-0.385,0.132-0.823,0.195-1.303,0.195
	c-0.944,0-1.704-0.243-2.274-0.74c-0.57-0.489-1.086-1.027-1.54-1.613s-0.944-1.124-1.461-1.613c-0.517-0.497-1.197-0.74-2.042-0.74
	c-0.074,0-0.248,0.016-0.528,0.053c-0.285,0.032-0.432,0.139-0.432,0.307c0,0.4,0.168,0.676,0.507,0.828
	c0.337,0.158,0.606,0.321,0.812,0.49c0.675,0.539,1.16,1.149,1.466,1.837c0.295,0.689,0.633,1.351,1.002,1.983
	c0.375,0.628,0.913,1.166,1.62,1.614c0.707,0.449,1.799,0.675,3.287,0.675c0.601,0,1.287-0.095,2.068-0.285
	c0,0.168-0.011,0.328-0.027,0.476c-0.016,0.146-0.026,0.291-0.026,0.426c0,0.503,0.016,1.014,0.053,1.541
	c0.031,0.522,0.015,1.039-0.053,1.535h12.83v-0.643C39.878,47.641,39.889,46.808,39.926,45.805z"/>
</svg>
