<?xml version="1.0" encoding="utf-8"?>
<!-- Generator: Adobe Illustrator 16.0.0, SVG Export Plug-In . SVG Version: 6.00 Build 0)  -->
<svg version="1.2" baseProfile="tiny" id="Layer_1" xmlns="http://www.w3.org/2000/svg" xmlns:xlink="http://www.w3.org/1999/xlink"
	 x="0px" y="0px" viewBox="0 0 64 64" xml:space="preserve">
<g>
	<path fill="#3E3E3F" d="M42.562,16.448c-0.032,0.033-0.074,0.118-0.124,0.252c-0.054,0.137-0.078,0.375-0.078,0.713
		c0,0.477,0.07,0.934,0.202,1.375V35.64c0,1.729-0.169,3.393-0.505,4.988c-0.34,1.595-0.928,3.012-1.757,4.25
		c-0.833,1.241-1.972,2.223-3.413,2.952c-1.442,0.729-3.281,1.098-5.523,1.098h-0.663c-1.935,0-3.505-0.266-4.707-0.791
		c-1.206-0.526-2.15-1.197-2.825-2.01c-0.68-0.816-1.14-1.707-1.375-2.674c-0.236-0.968-0.356-1.892-0.356-2.773
		c0-0.746,0.095-1.469,0.282-2.165c0.187-0.694,0.456-1.305,0.812-1.831s0.791-0.951,1.297-1.274
		c0.509-0.32,1.089-0.482,1.731-0.482c0.613,0,1.002,0.162,1.172,0.482c0.17,0.323,0.253,0.655,0.253,0.992
		c0,0.748-0.153,1.367-0.456,1.858c-0.307,0.493-0.638,0.926-0.995,1.299c-0.356,0.375-0.688,0.748-0.994,1.121
		c-0.302,0.372-0.456,0.83-0.456,1.373c0,1.63,0.542,2.801,1.628,3.513c1.085,0.711,2.444,1.067,4.072,1.067
		c1.425,0,2.664-0.286,3.717-0.864c1.052-0.575,1.926-1.305,2.622-2.188c0.696-0.882,1.214-1.841,1.554-2.877s0.51-2.012,0.51-2.927
		l-0.767,0.05c-1.222,0-2.282-0.28-3.183-0.839c-0.898-0.56-1.644-1.264-2.236-2.113c-0.597-0.847-1.036-1.765-1.326-2.749
		s-0.431-1.899-0.431-2.749v-1.781c0-0.644,0.083-1.4,0.253-2.266s0.406-1.765,0.712-2.697c0.307-0.934,0.68-1.85,1.123-2.75
		c0.439-0.897,0.916-1.705,1.425-2.417c0.506-0.713,1.049-1.289,1.629-1.732c0.576-0.439,1.168-0.661,1.781-0.661
		c0.236,0,0.51,0.052,0.816,0.153l3.562,0.255c0.236,0.033,0.464,0.118,0.688,0.252C42.454,15.87,42.562,16.108,42.562,16.448z
		 M38.188,22.556c0.066-0.271,0.133-0.526,0.203-0.764c0.066-0.236,0.1-0.51,0.1-0.814c0-0.441-0.108-0.841-0.328-1.197
		c-0.224-0.356-0.621-0.535-1.197-0.535c-0.75,0-1.359,0.307-1.835,0.918c-0.473,0.611-0.837,1.34-1.094,2.187
		c-0.253,0.85-0.431,1.732-0.534,2.647c-0.1,0.917-0.154,1.664-0.154,2.241c0,0.441,0.033,1.077,0.104,1.908
		c0.066,0.833,0.229,1.655,0.485,2.469c0.253,0.814,0.608,1.527,1.069,2.138c0.455,0.61,1.076,0.917,1.855,0.917
		c0.07,0,0.266-0.017,0.584-0.052c0.323-0.033,0.572-0.085,0.742-0.153V22.556z"/>
</g>
</svg>
