<?xml version="1.0" encoding="utf-8"?>
<!-- Generator: Adobe Illustrator 16.0.0, SVG Export Plug-In . SVG Version: 6.00 Build 0)  -->
<svg version="1.2" baseProfile="tiny" id="Layer_1" xmlns="http://www.w3.org/2000/svg" xmlns:xlink="http://www.w3.org/1999/xlink"
	 x="0px" y="0px" viewBox="0 0 64 64" xml:space="preserve">
<path fill="#3E3E3F" d="M16.629,38.6c0.071,0,0.13-0.057,0.141-0.139l0.381-2.988l-0.381-3.056c-0.011-0.081-0.07-0.138-0.141-0.138
	c-0.073,0-0.132,0.058-0.142,0.138c0,0-0.335,3.056-0.335,3.056l0.335,2.988C16.498,38.541,16.557,38.6,16.629,38.6z M15.507,37.331
	L15.507,37.331L15.507,37.331L15.507,37.331z M15.371,37.463c0.069,0,0.125-0.055,0.136-0.132l0.294-1.858l-0.294-1.89
	c-0.011-0.078-0.067-0.133-0.136-0.133c-0.071,0-0.127,0.055-0.137,0.133l-0.249,1.89l0.249,1.858
	C15.244,37.408,15.3,37.463,15.371,37.463z M18.137,31.847c-0.011-0.097-0.083-0.167-0.171-0.167c-0.09,0-0.162,0.07-0.17,0.167
	c0,0-0.318,3.626-0.318,3.626l0.318,3.493c0.009,0.097,0.081,0.167,0.17,0.167c0.088,0,0.16-0.07,0.171-0.166l0.36-3.494
	L18.137,31.847z M19.314,39.273c0.104,0,0.189-0.084,0.199-0.195l0,0l0.341-3.604l-0.341-3.727c-0.01-0.111-0.095-0.195-0.199-0.195
	c-0.105,0-0.191,0.084-0.2,0.196l-0.3,3.726l0.3,3.604C19.123,39.189,19.208,39.273,19.314,39.273z M20.672,39.333
	c0.122,0,0.22-0.097,0.229-0.226v0.001l0.321-3.634l-0.321-3.458c-0.009-0.127-0.107-0.224-0.229-0.224
	c-0.123,0-0.221,0.097-0.229,0.226l-0.284,3.456l0.284,3.633C20.451,39.236,20.55,39.333,20.672,39.333z M22.601,35.477L22.3,29.853
	c-0.008-0.143-0.122-0.255-0.258-0.255c-0.138,0-0.25,0.112-0.257,0.255c0,0-0.267,5.624-0.267,5.624l0.267,3.633
	c0.007,0.143,0.12,0.254,0.257,0.254c0.136,0,0.25-0.111,0.258-0.255v0.001L22.601,35.477z M23.423,39.37
	c0.153,0,0.279-0.124,0.287-0.284l0,0.002l0.281-3.611l-0.281-6.908c-0.007-0.16-0.134-0.284-0.287-0.284
	c-0.154,0-0.28,0.125-0.287,0.284l-0.249,6.908l0.249,3.61C23.143,39.246,23.269,39.37,23.423,39.37z M24.814,27.679
	c-0.171,0-0.31,0.138-0.316,0.313c0,0-0.231,7.485-0.231,7.485l0.231,3.573c0.006,0.174,0.145,0.312,0.316,0.312
	c0.17,0,0.309-0.137,0.315-0.313v0.002l0.262-3.573l-0.262-7.485C25.124,27.816,24.985,27.679,24.814,27.679z M26.217,39.37
	c0.188,0,0.339-0.15,0.345-0.343v0.002l0.241-3.551l-0.241-7.738c-0.006-0.192-0.157-0.343-0.345-0.343
	c-0.188,0-0.339,0.151-0.345,0.343l-0.214,7.738l0.215,3.551C25.877,39.22,26.029,39.37,26.217,39.37z M27.631,39.366
	c0.203,0,0.368-0.163,0.373-0.372v0.002l0.222-3.518l-0.222-7.541c-0.005-0.208-0.17-0.372-0.373-0.372
	c-0.206,0-0.37,0.164-0.375,0.372l-0.197,7.54l0.198,3.517C27.261,39.203,27.425,39.366,27.631,39.366z M29.66,35.479l-0.202-7.266
	c-0.005-0.224-0.181-0.4-0.402-0.4c-0.222,0-0.399,0.176-0.403,0.401l-0.18,7.265l0.18,3.496c0.004,0.223,0.182,0.397,0.403,0.397
	c0.221,0,0.397-0.175,0.402-0.4v0.003L29.66,35.479z M30.491,39.38c0.234,0,0.427-0.192,0.431-0.43v0.002l0.183-3.472l-0.183-8.646
	c-0.004-0.237-0.197-0.43-0.431-0.43c-0.235,0-0.428,0.193-0.432,0.43l-0.163,8.642c0,0.006,0.163,3.476,0.163,3.476
	C30.062,39.188,30.256,39.38,30.491,39.38z M31.919,25.592c-0.251,0-0.458,0.206-0.461,0.459L31.27,35.48l0.188,3.422
	c0.003,0.25,0.21,0.456,0.461,0.456c0.25,0,0.458-0.206,0.461-0.459v0.004l0.206-3.423l-0.206-9.43
	C32.377,25.798,32.17,25.592,31.919,25.592z M33.227,39.382c0.011,0.002,11.527,0.007,11.603,0.007c2.311,0,4.185-1.874,4.185-4.185
	c0-2.312-1.874-4.187-4.185-4.187c-0.574,0-1.121,0.116-1.619,0.325c-0.333-3.772-3.496-6.731-7.355-6.731
	c-0.943,0-1.864,0.186-2.677,0.5c-0.316,0.123-0.399,0.248-0.402,0.492c0,0,0,13.284,0,13.284
	C32.778,39.145,32.977,39.356,33.227,39.382z"/>
</svg>
