<?xml version="1.0" encoding="utf-8"?>
<!-- Generator: Adobe Illustrator 16.0.0, SVG Export Plug-In . SVG Version: 6.00 Build 0)  -->
<!DOCTYPE svg PUBLIC "-//W3C//DTD SVG 1.1//EN" "http://www.w3.org/Graphics/SVG/1.1/DTD/svg11.dtd">
<svg version="1.1" id="Layer_1" xmlns="http://www.w3.org/2000/svg" xmlns:xlink="http://www.w3.org/1999/xlink" x="0px" y="0px"
	viewBox="0 0 64 64" enable-background="new 0 0 64 64" xml:space="preserve">
<g>
	<path fill="#3E3E3F" d="M41.939,40.543c-6.283-3.844-14.075-4.738-23.15-2.661c-0.802,0.183-1.302,0.979-1.118,1.776
		c0.179,0.803,0.982,1.3,1.78,1.12c8.297-1.895,15.342-1.125,20.937,2.299c0.7,0.422,1.618,0.203,2.051-0.494
		C42.859,41.879,42.645,40.966,41.939,40.543"/>
	<path fill="#3E3E3F" d="M44.738,33.535c-7.355-4.519-18.121-5.797-26.78-3.167c-0.979,0.294-1.536,1.333-1.237,2.315
		c0.299,0.982,1.337,1.539,2.321,1.238c7.575-2.297,17.348-1.162,23.748,2.783c0.875,0.533,2.023,0.26,2.56-0.615
		C45.889,35.217,45.611,34.077,44.738,33.535"/>
	<path fill="#3E3E3F" d="M47.876,25.395c-8.841-5.247-22.84-5.745-31.262-3.185c-1.18,0.358-1.843,1.604-1.485,2.782
		c0.357,1.178,1.599,1.841,2.783,1.487c7.33-2.228,20.006-1.809,27.69,2.753c1.062,0.629,2.43,0.282,3.049-0.777
		C49.287,27.391,48.936,26.026,47.876,25.395"/>
</g>
</svg>
